# xmcd
#
# Track frame offsets:
#	150
#	12175
#	28888
#	45510
#	60368
#	76377
#	89194
#	106285
#	119475
#	139352
#	155229
#
# Disc length: 2263 seconds
#
# Revision: 1
# Processed by: cddbd v1.5.2PL0 Copyright (c) Steve Scherf et al.
# Submitted via: EasyCDDAExtractor 10.0.5.1
#
DISCID=9608d50b
DTITLE=Anne Nørdsti - Bonderomantikk
DYEAR=2005
DGENRE=Pop
TTITLE0=Bonderomantikk
TTITLE1=Store bokstaver og luftslott
TTITLE2=Jeg vil så gjerne reise hjem
TTITLE3=Ingenting kan stoppe meg nå
TTITLE4=De enkle ord han sa
TTITLE5=Kom deg på dør og forsvinn
TTITLE6=Er det du
TTITLE7=Jeg vil aldri slippe taket
TTITLE8=Lykke til
TTITLE9=Cruise med min egen cheva
TTITLE10=Tanker i natta
EXTD=YEAR: 2005
EXTT0=
EXTT1=
EXTT2=
EXTT3=
EXTT4=
EXTT5=
EXTT6=
EXTT7=
EXTT8=
EXTT9=
EXTT10=
PLAYORDER=
